# xmcd
#
# Track frame offsets:
#   150
#   20619
#   36999
#   57780
#   75602
#   95773
#   114357
#   128136
#   144951
#   159880
#   178870
#   198938
#   221515
#   236937
#   255976
#   283641
#   313199
#   342992
#
# Disc length: 4791 seconds
#
# Revision: 0
# Processed by: cddbd v1.4PL0 Copyright (c) Steve Scherf et al.
# Submitted via: uFREEDB ActiveX Control 1.5
#
DISCID=0012b512
DTITLE=j - d
DYEAR=1900
DGENRE=Alternative
TTITLE0=1
TTITLE1=2
TTITLE2=3
TTITLE3=4
TTITLE4=6
TTITLE5=7
TTITLE6=8
TTITLE7=9
TTITLE8=10
TTITLE9=11
TTITLE10=12
TTITLE11=Jeff Scott Soto - Crain(Aeroshimith)
TTITLE12=13
TTITLE13=Jeff Scott Soto - Queen cover
TTITLE14=15
TTITLE15=Jeff Scott Sotto - Crazy(live/Seal cover)
TTITLE16=Yngwie Malmsteen - I'am a Viking(Live)
TTITLE17=18
EXTD=
EXTT0=
EXTT1=
EXTT2=
EXTT3=
EXTT4=
EXTT5=
EXTT6=
EXTT7=
EXTT8=
EXTT9=
EXTT10=
EXTT11=
EXTT12=
EXTT13=
EXTT14=
EXTT15=
EXTT16=
EXTT17=
PLAYORDER=
